<mxfile host="app.diagrams.net" agent="Mozilla/5.0 (Windows NT 10.0; Win64; x64) AppleWebKit/537.36 (KHTML, like Gecko) Chrome/128.0.0.0 YaBrowser/24.10.0.0 Safari/537.36" version="24.8.3">
  <diagram name="Страница — 1" id="A7o2736bNEMVYYDjSwh4">
    <mxGraphModel dx="1050" dy="1150" grid="1" gridSize="10" guides="1" tooltips="1" connect="1" arrows="1" fold="1" page="1" pageScale="1" pageWidth="827" pageHeight="583" math="0" shadow="0">
      <root>
        <mxCell id="0" />
        <mxCell id="1" parent="0" />
        <mxCell id="nqDnOcOkrLWEJjr5gWGr-1" value="" style="rounded=1;whiteSpace=wrap;html=1;rotation=90;" parent="1" vertex="1">
          <mxGeometry x="110" y="-477.5" width="180" height="100" as="geometry" />
        </mxCell>
        <mxCell id="nqDnOcOkrLWEJjr5gWGr-2" value="" style="ellipse;whiteSpace=wrap;html=1;aspect=fixed;" parent="1" vertex="1">
          <mxGeometry x="190" y="-367.5" width="20" height="20" as="geometry" />
        </mxCell>
        <mxCell id="nqDnOcOkrLWEJjr5gWGr-3" value="" style="rounded=1;whiteSpace=wrap;html=1;rotation=90;" parent="1" vertex="1">
          <mxGeometry x="330" y="-495" width="180" height="135" as="geometry" />
        </mxCell>
        <mxCell id="nqDnOcOkrLWEJjr5gWGr-4" value="" style="shape=cylinder3;whiteSpace=wrap;html=1;boundedLbl=1;backgroundOutline=1;size=15;fillColor=#dae8fc;strokeColor=#6c8ebf;" parent="1" vertex="1">
          <mxGeometry x="580" y="-500" width="90" height="145" as="geometry" />
        </mxCell>
        <mxCell id="nqDnOcOkrLWEJjr5gWGr-5" value="" style="endArrow=classic;startArrow=classic;html=1;rounded=0;exitX=0.5;exitY=0;exitDx=0;exitDy=0;entryX=0.5;entryY=1;entryDx=0;entryDy=0;strokeWidth=2;" parent="1" source="nqDnOcOkrLWEJjr5gWGr-1" target="nqDnOcOkrLWEJjr5gWGr-3" edge="1">
          <mxGeometry width="50" height="50" relative="1" as="geometry">
            <mxPoint x="217" y="-410" as="sourcePoint" />
            <mxPoint x="350" y="-410" as="targetPoint" />
          </mxGeometry>
        </mxCell>
        <mxCell id="nqDnOcOkrLWEJjr5gWGr-20" value="&lt;h2&gt;1&lt;/h2&gt;" style="edgeLabel;html=1;align=center;verticalAlign=middle;resizable=0;points=[];" parent="nqDnOcOkrLWEJjr5gWGr-5" vertex="1" connectable="0">
          <mxGeometry x="-0.0868" y="-1" relative="1" as="geometry">
            <mxPoint as="offset" />
          </mxGeometry>
        </mxCell>
        <mxCell id="nqDnOcOkrLWEJjr5gWGr-6" value="" style="endArrow=classic;startArrow=classic;html=1;rounded=0;exitX=0.5;exitY=0;exitDx=0;exitDy=0;strokeWidth=2;entryX=0;entryY=0.5;entryDx=0;entryDy=0;entryPerimeter=0;" parent="1" source="nqDnOcOkrLWEJjr5gWGr-3" target="nqDnOcOkrLWEJjr5gWGr-4" edge="1">
          <mxGeometry width="50" height="50" relative="1" as="geometry">
            <mxPoint x="495" y="-427" as="sourcePoint" />
            <mxPoint x="628" y="-427" as="targetPoint" />
          </mxGeometry>
        </mxCell>
        <mxCell id="nqDnOcOkrLWEJjr5gWGr-21" value="&lt;h2&gt;2&lt;/h2&gt;" style="edgeLabel;html=1;align=center;verticalAlign=middle;resizable=0;points=[];" parent="nqDnOcOkrLWEJjr5gWGr-6" vertex="1" connectable="0">
          <mxGeometry x="-0.0422" relative="1" as="geometry">
            <mxPoint as="offset" />
          </mxGeometry>
        </mxCell>
        <mxCell id="nqDnOcOkrLWEJjr5gWGr-7" value="&lt;h3&gt;A&lt;/h3&gt;" style="text;html=1;align=center;verticalAlign=middle;whiteSpace=wrap;rounded=0;" parent="1" vertex="1">
          <mxGeometry x="170" y="-548.75" width="60" height="30" as="geometry" />
        </mxCell>
        <mxCell id="nqDnOcOkrLWEJjr5gWGr-8" value="&lt;h3 style=&quot;forced-color-adjust: none; color: rgb(0, 0, 0); font-family: Helvetica; font-style: normal; font-variant-ligatures: normal; font-variant-caps: normal; letter-spacing: normal; orphans: 2; text-align: center; text-indent: 0px; text-transform: none; widows: 2; word-spacing: 0px; -webkit-text-stroke-width: 0px; white-space: normal; background-color: rgb(251, 251, 251); text-decoration-thickness: initial; text-decoration-style: initial; text-decoration-color: initial;&quot;&gt;B&lt;/h3&gt;" style="text;whiteSpace=wrap;html=1;" parent="1" vertex="1">
          <mxGeometry x="414" y="-565" width="40" height="70" as="geometry" />
        </mxCell>
        <mxCell id="nqDnOcOkrLWEJjr5gWGr-10" value="&lt;h3 style=&quot;forced-color-adjust: none; color: rgb(0, 0, 0); font-family: Helvetica; font-style: normal; font-variant-ligatures: normal; font-variant-caps: normal; letter-spacing: normal; orphans: 2; text-align: center; text-indent: 0px; text-transform: none; widows: 2; word-spacing: 0px; -webkit-text-stroke-width: 0px; white-space: normal; background-color: rgb(251, 251, 251); text-decoration-thickness: initial; text-decoration-style: initial; text-decoration-color: initial;&quot;&gt;C&lt;/h3&gt;" style="text;whiteSpace=wrap;html=1;" parent="1" vertex="1">
          <mxGeometry x="620" y="-548.75" width="10" height="37.5" as="geometry" />
        </mxCell>
        <mxCell id="nqDnOcOkrLWEJjr5gWGr-13" value="&lt;h2&gt;PG&lt;/h2&gt;" style="text;html=1;align=center;verticalAlign=middle;whiteSpace=wrap;rounded=0;" parent="1" vertex="1">
          <mxGeometry x="595" y="-442.5" width="60" height="30" as="geometry" />
        </mxCell>
        <mxCell id="nqDnOcOkrLWEJjr5gWGr-15" value="&lt;h3 style=&quot;line-height: 100%;&quot;&gt;A - фронтенд, мобильное приложение&lt;br&gt;&lt;/h3&gt;&lt;h3 style=&quot;line-height: 100%;&quot;&gt;B - бэкенд/сервер&lt;br&gt;&lt;/h3&gt;&lt;h3 style=&quot;line-height: 100%;&quot;&gt;C - реляционная база данных, PG&lt;/h3&gt;" style="text;html=1;align=left;verticalAlign=middle;whiteSpace=wrap;rounded=0;" parent="1" vertex="1">
          <mxGeometry x="160" y="-320" width="380" height="90" as="geometry" />
        </mxCell>
        <mxCell id="nqDnOcOkrLWEJjr5gWGr-22" value="&lt;h3 style=&quot;line-height: 160%;&quot;&gt;&lt;span style=&quot;font-weight: normal;&quot;&gt;1 - протокол взаимодействия HTTP/HTTPS&lt;br&gt;2 -&amp;nbsp;&lt;span style=&quot;background-color: initial;&quot;&gt;протокол взаимодействия TCP/IP&lt;/span&gt;&lt;/span&gt;&lt;/h3&gt;" style="text;html=1;align=left;verticalAlign=middle;whiteSpace=wrap;rounded=0;" parent="1" vertex="1">
          <mxGeometry x="160" y="-210" width="440" height="30" as="geometry" />
        </mxCell>
      </root>
    </mxGraphModel>
  </diagram>
</mxfile>
